<svg xmlns="http://www.w3.org/2000/svg" version="1.1" baseProfile="tiny" x="0" y="0" viewBox="0 0 253.5 39" xml:space="preserve"><path fill="#FFFFFF" d="M5.1 34.4V4h11.3v3.8H9.1v9.4h6.8V21H9.1v9.6h7.5v3.8H5.1zM18.3 34.4V4h4v26.6h7.3v3.8H18.3zM45.8 34.4l-5.3-17.8v17.8h-3.7V4h3.9L46 22.8V4h3.7v30.4H45.8zM58.7 34.7c-3.9 0-6.6-2-6.6-6.1 0-0.3 0-24.6 0-24.6h4c0 0 0 23.2 0 24 0 2 0.9 2.9 2.6 2.9 1.6 0 2.5-1 2.5-2.9 0-0.8 0-24.1 0-24.1h4c0 0 0 24.3 0 24.6C65.2 32.5 62.7 34.7 58.7 34.7zM67.7 34.4V4H79v3.8h-7.4v9.4h6.8V21h-6.8v9.6h7.5v3.8H67.7zM89.2 34.4h-4.6L79.6 4h4L87 26.9 90.5 4h4L89.2 34.4zM107.5 6.7c1.3 2.5 1.4 6.6 1.4 12.3 0 6-0.2 10.1-1.4 12.7 -1 2-2.7 3-5.6 3 -2.9 0-4.5-1-5.5-3 -1.3-2.5-1.4-6.7-1.4-12.6 0-5.7 0.1-9.9 1.5-12.4 1-1.9 2.6-2.9 5.5-2.9C104.8 3.8 106.5 4.8 107.5 6.7zM104.2 29.8c0.7-1.5 0.8-4.6 0.8-10.6 0-5.8 0.1-9-0.8-10.5 -0.4-0.8-1.2-1.1-2.2-1.1 -1 0-1.6 0.3-2.1 1.1 -0.9 1.6-0.9 4.8-0.9 10.6 0 5.9 0.1 9 0.8 10.5 0.4 0.9 1.1 1.3 2.1 1.3C103.1 31 103.7 30.7 104.2 29.8zM123.3 34.4h-6.5V4h6.5c3 0 4.6 1 5.6 3 0.8 1.6 1 7.6 1 11.5 0 6.2-0.1 11.3-1.1 13.2C127.9 33.2 126.6 34.4 123.3 34.4zM125.8 18.6c0-1.7-0.2-7.8-0.4-8.9 -0.3-1.4-1.1-2.1-2.4-2.1h-2.4V31h2.4c1.2 0 2.1-0.5 2.4-1.7C126 27.5 125.8 23.9 125.8 18.6zM132 34.4V4h4.1v30.4H132zM141.4 34.4h-4l5-30.4h5.4l4.4 30.4h-4l-0.9-7.3h-4.9L141.4 34.4zM145.4 13c-0.1-1-0.4-4.7-0.4-4.7s-0.3 3.8-0.4 4.7c-0.1 0.7-1.7 10.6-1.7 10.6h4C146.8 23.6 145.4 13.7 145.4 13zM165.6 17.6c-0.4 1.1-1.3 2.1-2.1 2.3l3.6 14.5H163L159.9 21h-2.5v13.4h-3.8V4h7.3c2.4 0 3.9 1.1 4.6 3.1 0.4 1.2 0.7 2.9 0.7 5.4C166.3 14.9 166.1 16.5 165.6 17.6zM162.1 9.5c-0.2-1-0.8-1.8-1.9-1.8h-2.7c0 0 0 9.1 0 9.7 0 0 2.7 0 2.9 0 0.8-0.1 1.3-0.5 1.4-1.1 0.3-0.6 0.4-2.4 0.4-3.4C162.3 11.6 162.1 9.9 162.1 9.5zM168.8 34.4V4h4.1v30.4H168.8zM187.6 6.7c1.3 2.5 1.4 6.6 1.4 12.3 0 6-0.2 10.1-1.4 12.7 -1 2-2.7 3-5.6 3 -2.9 0-4.5-1-5.5-3 -1.3-2.5-1.4-6.7-1.4-12.6 0-5.7 0.1-9.9 1.5-12.4 1-1.9 2.6-2.9 5.5-2.9C184.8 3.8 186.5 4.8 187.6 6.7zM184.2 29.8c0.7-1.5 0.8-4.6 0.8-10.6 0-5.8 0.1-9-0.8-10.5 -0.4-0.8-1.2-1.1-2.2-1.1 -1 0-1.6 0.3-2.1 1.1 -0.9 1.6-0.9 4.8-0.9 10.6 0 5.9 0.1 9 0.8 10.5 0.4 0.9 1.1 1.3 2.1 1.3C183.1 31 183.8 30.7 184.2 29.8z"/><path fill="#FFFFFF" d="M211.2 29.2v0.5c0 0.6-0.1 1.2-0.2 1.7 -0.1 0.5-0.3 1-0.7 1.4 -0.3 0.4-0.7 0.7-1.2 1 -0.5 0.2-1.1 0.4-1.8 0.4 -0.7 0-1.3-0.1-1.8-0.4 -0.5-0.2-0.9-0.6-1.2-1 -0.3-0.4-0.5-1-0.7-1.6 -0.1-0.6-0.2-1.3-0.2-2v-3.9c0-0.7 0.1-1.4 0.2-2 0.1-0.6 0.3-1.1 0.7-1.6 0.3-0.4 0.7-0.8 1.2-1 0.5-0.2 1.1-0.4 1.8-0.4 0.7 0 1.3 0.1 1.8 0.3 0.5 0.2 0.9 0.5 1.2 0.9 0.3 0.4 0.5 0.9 0.7 1.4 0.1 0.6 0.2 1.2 0.2 1.8h-1.9c0-0.5 0-0.9-0.1-1.3 -0.1-0.4-0.2-0.7-0.3-0.9 -0.2-0.2-0.4-0.4-0.6-0.5 -0.2-0.1-0.6-0.2-0.9-0.2 -0.4 0-0.7 0.1-0.9 0.2 -0.2 0.1-0.4 0.3-0.6 0.5s-0.3 0.5-0.3 0.9 -0.1 0.8-0.1 1.3v4.9c0 0.4 0 0.7 0.1 1.1 0.1 0.3 0.2 0.7 0.3 0.9 0.2 0.3 0.4 0.5 0.6 0.7s0.6 0.3 0.9 0.3c0.4 0 0.7-0.1 0.9-0.3 0.2-0.2 0.4-0.4 0.6-0.7 0.2-0.3 0.3-0.6 0.3-0.9 0.1-0.4 0.1-0.7 0.1-1.1v-0.5H211.2zM221.2 29.7c0 0.6-0.1 1.2-0.2 1.7 -0.1 0.5-0.3 1-0.6 1.4 -0.3 0.4-0.7 0.7-1.2 1 -0.5 0.2-1.1 0.4-1.9 0.4 -0.5 0-1-0.1-1.3-0.2 -0.4-0.1-0.7-0.3-1-0.5 -0.3-0.2-0.5-0.4-0.7-0.7s-0.4-0.6-0.5-0.9c-0.1-0.3-0.2-0.7-0.3-1.1 -0.1-0.4-0.1-0.8-0.1-1.2v-4.9c0-0.4 0-0.8 0.1-1.2 0.1-0.4 0.1-0.7 0.3-1.1 0.1-0.3 0.3-0.6 0.5-0.9s0.4-0.5 0.7-0.7c0.3-0.2 0.6-0.4 1-0.5 0.4-0.1 0.8-0.2 1.3-0.2 0.7 0 1.4 0.1 1.9 0.4 0.5 0.2 0.9 0.6 1.2 1 0.3 0.4 0.5 0.9 0.6 1.4 0.1 0.5 0.2 1.1 0.2 1.7V29.7zM215.3 30.2c0 0.4 0 0.7 0.1 1 0.1 0.3 0.2 0.6 0.3 0.8 0.2 0.2 0.4 0.4 0.6 0.5 0.2 0.1 0.6 0.2 0.9 0.2 0.4 0 0.7-0.1 0.9-0.2 0.2-0.1 0.4-0.3 0.6-0.5 0.2-0.2 0.3-0.5 0.3-0.8 0.1-0.3 0.1-0.6 0.1-1v-5.8c0-0.4 0-0.7-0.1-1 -0.1-0.3-0.2-0.6-0.3-0.8 -0.2-0.2-0.4-0.4-0.6-0.5 -0.2-0.1-0.6-0.2-0.9-0.2 -0.4 0-0.7 0.1-0.9 0.2 -0.2 0.1-0.4 0.3-0.6 0.5 -0.2 0.2-0.3 0.5-0.3 0.8 -0.1 0.3-0.1 0.6-0.1 1V30.2zM227.5 34.1l-1.9-10.8v10.8h-1.9V20.5h2.6l1.9 10.5 1.9-10.5h2.7v13.6h-1.9V23.4l-1.9 10.8H227.5zM235 32.2h1.9v1.9H235V32.2zM244.5 34.1L241 25v9.1h-1.9V20.5h1.3l3.6 8.9v-8.9h1.9v13.6H244.5zM248.6 20.5h1.9v13.6h-1.9V20.5z"/><ellipse fill="#F15A24" cx="196.4" cy="31.9" rx="2.5" ry="2.5"/></svg>