<svg xmlns="http://www.w3.org/2000/svg" version="1.1" x="0" y="0" viewBox="-131.4 -20 315.4 48" enable-background="new -131.4 -20 315.4 48" xml:space="preserve"><path fill="#8C96AE" d="M-130 27.5v-45h19.2v5.6h-12.5V2.1h11.6v5.6h-11.6v14.2h12.7v5.6C-110.7 27.5-130 27.5-130 27.5zM-107.6 27.5v-45h6.8v39.4h12.3v5.6H-107.6zM-61 27.5l-8.9-26.4v26.4h-6.2v-45h6.7l8.8 27.9v-27.9h6.3v45H-61zM-39 27.9c-6.6 0-11.2-2.9-11.2-9 0-0.5 0-36.5 0-36.5h6.7c0 0 0 34.4 0 35.7 0 2.9 1.5 4.3 4.4 4.3 2.7 0 4.2-1.5 4.2-4.2 0-1.2 0-35.7 0-35.7h6.8c0 0 0 36.1 0 36.5C-28.1 24.7-32.2 27.9-39 27.9zM-23.7 27.5v-45h19.2v5.6H-17V2.1h11.6v5.6H-17v14.2h12.7v5.6C-4.4 27.5-23.7 27.5-23.7 27.5zM12.7 27.5H4.9l-8.5-45h6.8l5.8 34 5.9-34h6.7L12.7 27.5zM43.8-13.5c2.3 3.7 2.5 9.8 2.5 18.2 0 8.9-0.3 15-2.5 18.8 -1.7 3-4.5 4.5-9.4 4.5 -4.9 0-7.7-1.5-9.4-4.4 -2.1-3.7-2.5-9.9-2.5-18.7 0-8.5 0.2-14.7 2.5-18.5 1.7-2.8 4.5-4.2 9.3-4.2C39.2-17.8 42.1-16.3 43.8-13.5zM38.1 20.7c1.2-2.3 1.3-6.9 1.3-15.8 0-8.6 0.1-13.4-1.3-15.6 -0.7-1.1-2-1.6-3.7-1.6 -1.7 0-2.8 0.5-3.5 1.6 -1.5 2.3-1.5 7.1-1.5 15.8 0 8.8 0.1 13.4 1.4 15.6 0.7 1.4 1.9 1.9 3.6 1.9C36.3 22.6 37.4 22.1 38.1 20.7zM70.7 27.5H59.6v-45h11c5 0 7.9 1.5 9.5 4.5 1.4 2.4 1.7 11.2 1.7 17.1 0 9.1-0.1 16.7-1.9 19.5C78.5 25.8 76.3 27.5 70.7 27.5zM75 4.1c0-2.5-0.3-11.5-0.6-13.2 -0.5-2.1-1.9-3.1-4-3.1h-4.1v34.8h4.1c2.1 0 3.5-0.8 4-2.5C75.2 17.3 75 11.9 75 4.1zM85.4 27.5v-45h7v45H85.4zM101.3 27.5h-6.7l8.5-45h9.2l7.4 45h-6.8l-1.5-10.8H103L101.3 27.5zM108.1-4.2c-0.2-1.4-0.7-7-0.7-7s-0.5 5.6-0.6 7c-0.1 1-2.9 15.7-2.9 15.7h6.7C110.6 11.5 108.2-3.2 108.1-4.2zM142.5 2.7c-0.7 1.7-2.3 3-3.6 3.4l6.1 21.5h-7l-5.2-19.9h-4.3v19.9h-6.5v-45h12.4c4 0 6.7 1.6 7.9 4.6 0.7 1.8 1.2 4.3 1.2 8C143.6-1.3 143.3 1 142.5 2.7zM136.5-9.3c-0.3-1.5-1.4-2.6-3.2-2.6h-4.7c0 0 0 13.4 0 14.3 0.1 0 4.6 0 5-0.1 1.4-0.1 2.1-0.8 2.5-1.6 0.5-1 0.7-3.5 0.7-5C136.8-6.2 136.6-8.8 136.5-9.3zM147.8 27.5v-45h7v45H147.8zM179.8-13.5c2.3 3.7 2.5 9.8 2.5 18.2 0 8.9-0.3 15-2.5 18.8 -1.7 3-4.5 4.5-9.4 4.5 -4.9 0-7.7-1.5-9.4-4.4 -2.1-3.7-2.5-9.9-2.5-18.7 0-8.5 0.2-14.7 2.5-18.5 1.7-2.8 4.5-4.2 9.3-4.2C175.1-17.8 178-16.3 179.8-13.5zM174.1 20.7c1.2-2.3 1.3-6.9 1.3-15.8 0-8.6 0.1-13.4-1.3-15.6 -0.7-1.1-2-1.6-3.7-1.6 -1.7 0-2.8 0.5-3.5 1.6 -1.5 2.3-1.5 7.1-1.5 15.8 0 8.8 0.1 13.4 1.4 15.6 0.7 1.4 1.9 1.9 3.6 1.9C172.2 22.6 173.4 22.1 174.1 20.7z"/></svg>